<?xml version="1.0" encoding="UTF-8" standalone="no"?>
<!-- Created with Inkscape (http://www.inkscape.org/) -->

<svg
   width="171.39684mm"
   height="151.94905mm"
   viewBox="0 0 171.39684 151.94905"
   version="1.1"
   id="svg984"
   inkscape:export-filename="alzira.png"
   inkscape:export-xdpi="96"
   inkscape:export-ydpi="96"
   xmlns:inkscape="http://www.inkscape.org/namespaces/inkscape"
   xmlns:sodipodi="http://sodipodi.sourceforge.net/DTD/sodipodi-0.dtd"
   xmlns="http://www.w3.org/2000/svg"
   xmlns:svg="http://www.w3.org/2000/svg">
  <sodipodi:namedview
     id="namedview986"
     pagecolor="#ffffff"
     bordercolor="#000000"
     borderopacity="0.25"
     inkscape:showpageshadow="2"
     inkscape:pageopacity="0.0"
     inkscape:pagecheckerboard="0"
     inkscape:deskcolor="#d1d1d1"
     inkscape:document-units="mm"
     showgrid="false" />
  <defs
     id="defs981" />
  <g
     inkscape:label="Layer 1"
     inkscape:groupmode="layer"
     id="layer1"
     transform="translate(-16.742598,-76.986395)">
    <path
       style="fill:#822ece;fill-opacity:1;stroke-width:0.264583"
       d="m 112.9891,228.58507 c -1.74625,-0.19195 -4.30609,-0.64877 -5.68854,-1.01516 -1.38245,-0.36639 -3.18543,-0.84611 -4.00663,-1.06604 -7.874682,-2.10902 -22.030378,-8.55531 -30.256908,-13.77854 -0.72761,-0.46198 -2.27542,-1.42251 -3.43959,-2.13451 -2.59283,-1.58579 -7.81901,-5.064 -10.31875,-6.86751 -1.01864,-0.73493 -2.38786,-1.71766 -3.0427,-2.18384 -0.65485,-0.46618 -1.30969,-0.93993 -1.45521,-1.05278 -0.96023,-0.74465 -5.39302,-4.33041 -5.85318,-4.73473 -0.30883,-0.27136 -1.26133,-1.08122 -2.11666,-1.79968 -3.96154,-3.32759 -12.16387,-12.00905 -14.3896,-15.23016 -0.35194,-0.50932 -0.77533,-1.04511 -0.94087,-1.19063 -0.3422,-0.3008 -3.99852,-5.80857 -5.44494,-8.20208 -3.99436,-6.60981 -7.50112,-16.26251 -8.55479,-23.54792 -0.0842,-0.58208 -0.28129,-1.83224 -0.438,-2.77812 -0.49281,-2.97442 -0.35968,-10.02723 0.25971,-13.75833 1.06205,-6.39768 2.47339,-10.90542 4.9289,-15.74271 1.30182,-2.56457 3.82409,-6.58863 4.81255,-7.67805 0.26664,-0.29387 1.15447,-1.30718 1.97295,-2.25181 7.49041,-8.644801 18.44965,-15.276701 28.80664,-17.432121 0.80036,-0.16657 2.11005,-0.44811 2.91041,-0.62564 0.88213,-0.19568 3.53914,-0.32122 6.74688,-0.31879 4.39087,0.003 5.81329,0.10532 8.35595,0.59912 6.33589,1.23048 11.66114,3.08313 17.57321,6.11372 4.029666,2.06564 3.624566,1.98713 4.795116,0.92935 0.56414,-0.50979 1.918692,-1.59927 3.010092,-2.42106 1.09141,-0.82178 2.04391,-1.55972 2.11667,-1.63985 0.0728,-0.0801 0.96573,-0.69374 1.98437,-1.36355 6.15874,-4.04971 11.38801,-6.53996 17.44323,-8.30671 14.72187,-4.29544 30.62485,-1.98369 42.61719,6.19506 0.7276,0.49623 1.51433,1.09118 1.74828,1.32211 0.23395,0.23094 1.18645,1.07045 2.11667,1.86558 0.93021,0.79513 2.52474,2.38275 3.54338,3.52804 1.01865,1.1453 1.97681,2.22114 2.12925,2.39077 0.15244,0.16962 0.68822,0.89168 1.19063,1.60456 0.5024,0.712884 1.21634,1.724914 1.58654,2.248964 2.40032,3.397857 5.3123,9.694007 7.10985,15.372597 2.69732,8.52102 3.74452,17.6529 3.19793,27.88688 -0.40422,7.5683 -1.21001,12.66249 -3.0803,19.47353 -3.62141,13.18817 -9.37906,24.8292 -18.02067,36.43484 -2.39521,3.21676 -2.35074,3.16289 -6.6169,8.01516 -7.05813,8.02782 -15.12295,14.44916 -23.30994,18.55977 -5.68627,2.85502 -10.74883,4.31402 -16.40568,4.72803 -3.93047,0.28767 -3.54726,0.29514 -7.57654,-0.14776 z m 6.69018,-15.0041 c 0.15892,-0.19275 0.31137,-2.48314 0.36543,-5.4901 0.0967,-5.38132 0.28283,-6.33668 1.36094,-6.98706 1.07882,-0.65079 2.52913,2.45761 3.13656,6.72247 0.15544,1.09141 0.41764,2.87735 0.58266,3.96875 l 0.30005,1.98438 1.32271,-0.0779 c 1.85526,-0.10921 4.87406,-0.74893 6.62429,-1.40378 3.88896,-1.45505 10.97032,-5.58825 10.9703,-6.40308 -1e-5,-0.17455 -0.40608,-0.64136 -0.90238,-1.03737 -1.28423,-1.02468 -3.9956,-4.74438 -5.20851,-7.14547 -1.21937,-2.41388 -1.31834,-3.54804 -0.38604,-4.42389 0.90811,-0.85313 1.72724,-0.56784 3.11031,1.08326 3.2214,3.84568 4.82185,5.56534 5.90041,6.3399 0.65471,0.47018 1.19038,0.95375 1.19038,1.0746 0,0.12085 0.31063,0.21973 0.6903,0.21973 0.5172,0 1.22095,-0.54733 2.80662,-2.18281 3.13414,-3.2326 7.8819,-8.67792 7.86837,-9.02444 -0.006,-0.16617 -0.87951,-0.8713 -1.94004,-1.56696 -3.55811,-2.33394 -7.15878,-5.80209 -7.86812,-7.57852 -0.36202,-0.90663 -0.035,-2.08185 0.71638,-2.57414 0.54229,-0.35532 0.76445,-0.36783 1.45475,-0.0819 0.4481,0.18561 0.95341,0.46766 1.12292,0.62677 0.40251,0.37782 3.71677,3.01052 5.0707,4.02792 1.32825,0.99811 3.7669,2.47908 4.0822,2.47908 0.6905,0 6.51608,-12.53759 6.20376,-13.35149 -0.0599,-0.15612 -0.91048,-0.50657 -1.89015,-0.77877 -2.56589,-0.71294 -7.47439,-3.09875 -8.75435,-4.25512 -1.32852,-1.20024 -1.48229,-2.32678 -0.44997,-3.29658 1.02596,-0.96385 2.45381,-0.60931 10.6032,2.63279 2.21523,0.88129 2.06627,1.07155 3.28272,-4.19264 1.69006,-7.31376 2.28476,-12.28823 2.56708,-21.47277 0.43497,-14.15081 -2.58881,-26.36631 -8.90717,-35.98333 -8.9035,-13.551801 -23.59259,-19.209521 -39.18819,-15.093921 -5.02639,1.32644 -9.87606,3.5121 -14.15538,6.379584 -3.43722,2.30321 -8.0409,6.522267 -10.28035,9.421477 -1.360912,1.76184 -1.933582,2.03914 -3.008192,1.45663 -0.66275,-0.35925 -5.805896,-3.32274 -7.441666,-4.28791 -0.82483,-0.48668 -3.37095,-1.64797 -5.02708,-2.29286 -9.45196,-3.680547 -18.36509,-4.264567 -27.4232,-1.796867 -11.84007,3.225587 -21.34221,12.451627 -24.38492,23.676367 -0.6162,2.27317 -0.6828,2.99428 -0.69652,7.54062 -0.0143,4.74173 0.0273,5.17727 0.73294,7.67292 0.78382,2.77217 2.48525,6.29502 3.9412,8.16033 2.46846,3.16249 4.33522,4.72343 9.26605,7.74805 1.78341,1.09396 3.75887,2.48648 4.38991,3.09448 1.39754,1.34655 2.73888,3.92134 3.8036,7.30126 1.20332,3.81988 1.97702,5.50673 3.55195,7.744 3.15229,4.47804 7.22558,6.96643 11.92509,7.28511 3.60254,0.24429 6.35139,-0.51885 9.45829,-2.62584 3.0668,-2.07979 4.56045,-3.91047 9.20104,-11.27711 5.09249,-8.08402 12.361688,-14.18713 19.782478,-16.60908 2.05119,-0.66946 2.6096,-0.73546 6.35,-0.75052 3.79835,-0.0153 4.2768,0.0391 6.48229,0.73649 6.59238,2.08467 11.64055,7.07244 13.77454,13.60972 1.80898,5.54166 1.84766,10.12623 0.12705,15.05984 -1.72351,4.94198 -6.26837,9.28827 -11.00187,10.52119 -3.93447,1.02479 -8.32152,0.76602 -11.36119,-0.67016 -1.76935,-0.83597 -4.18671,-2.98674 -5.24935,-4.67042 -0.79082,-1.25301 -1.50272,-4.03603 -1.50272,-5.8746 0,-3.17728 1.6121,-6.88684 3.79581,-8.73443 0.41822,-0.35385 0.93061,-0.81357 1.13864,-1.02161 0.20804,-0.20803 0.97011,-0.60313 1.69349,-0.87799 2.39097,-0.9085 4.47735,-0.56615 6.55414,1.07545 1.97314,1.55968 2.54012,2.65268 2.54002,4.89645 -8e-5,1.57098 -0.13792,2.14618 -0.88007,3.67255 -0.48399,0.99541 -1.4616,2.56867 -2.17247,3.49614 -0.71086,0.92746 -1.29248,1.82319 -1.29248,1.99049 0,0.21659 0.78094,0.27237 2.71198,0.1937 2.88635,-0.11758 3.56266,-0.34667 6.12128,-2.07346 2.1922,-1.4795 3.93629,-4.23215 4.66094,-7.35622 0.40499,-1.74602 0.41219,-5.56271 0.0137,-7.29314 -1.13261,-4.91894 -4.59297,-8.62101 -10.00444,-10.70328 -1.60681,-0.61828 -2.13793,-0.68578 -5.35558,-0.68063 -3.20917,0.005 -3.77097,0.0781 -5.53262,0.71874 -8.18833,2.97765 -14.430352,10.9249 -17.152738,21.8386 -0.62572,2.50843 -0.70462,3.33583 -0.7106,7.45194 -0.008,5.2004 0.31691,7.27449 1.852606,11.84262 1.50446,4.47517 3.43861,7.75152 6.530462,11.06225 3.20086,3.42744 6.80876,5.58645 11.17657,6.6882 3.4527,0.87091 6.72785,1.09924 7.21921,0.50328 z M 78.460982,163.82118 c 0,-0.19187 0.17238,-0.93601 0.38309,-1.65364 0.48775,-1.6613 2.4691,-11.55871 2.6831,-13.40291 0.16643,-1.43426 -0.35947,-4.09981 -1.08611,-5.50497 -0.8058,-1.55824 -2.30206,-7.49899 -2.78426,-11.05458 -0.28246,-2.08276 -0.70816,-4.46401 -0.94599,-5.29167 -3.38545,-11.78132 -14.91293,-16.66235 -26.90285,-11.39136 -2.66596,1.17201 -2.56782,1.14785 -2.56782,0.63226 0,-0.95948 4.51212,-3.80754 8.7182,-5.50294 3.64998,-1.47125 6.63742,-2.06913 11.12555,-2.22659 3.4936,-0.12256 4.09336,-0.073 6.71106,0.55487 1.58103,0.37921 4.05618,1.16585 5.50034,1.7481 3.08819,1.24509 10.14936,4.86172 11.00825,5.63827 0.67612,0.6113 0.61318,1.06023 -0.36623,2.61226 -1.13238,1.79444 -2.92212,6.13817 -3.52159,8.54696 -1.19582,4.80507 -1.18783,9.46755 0.0276,16.12503 0.50256,2.7527 0.5393,3.41833 0.28476,5.15937 -0.43038,2.94394 -2.24794,7.00525 -5.2165,11.65623 -0.60373,0.94588 -1.36822,2.16627 -1.69887,2.71198 -0.58873,0.97165 -1.35176,1.33479 -1.35176,0.64333 z m 64.525938,-26.21324 c -1.9727,-2.11766 -3.58788,-3.18286 -5.63451,-3.71594 -1.76395,-0.45945 -3.21458,-0.33085 -4.70746,0.41732 -0.5399,0.27058 -1.03427,0.49197 -1.09859,0.49197 -0.0643,0 -0.24606,-0.37036 -0.40386,-0.82302 -0.71285,-2.04488 1.25255,-5.14437 3.67472,-5.79513 2.51569,-0.6759 5.73477,0.19972 7.60317,2.06812 1.12444,1.12444 2.34089,3.6326 2.71273,5.59329 0.27794,1.46557 0.135,3.07717 -0.29658,3.3439 -0.1317,0.0814 -0.96403,-0.62984 -1.84962,-1.58051 z"
       id="path849"
       inkscape:export-filename="alzira_plain1.svg"
       inkscape:export-xdpi="96"
       inkscape:export-ydpi="96" />
  </g>
</svg>
